HIERARCHY
ROOT root
{
	OFFSET 0.000000 0.000000 0.000000
	CHANNELS 6 Xposition Yposition Zposition Zrotation Yrotation Xrotation
	JOINT lhip
	{
		OFFSET 0.058581 -0.082280 -0.017664
		CHANNELS 3 Zrotation Yrotation Xrotation
		JOINT lknee
		{
			OFFSET 0.043451 -0.386469 0.008037
			CHANNELS 3 Zrotation Yrotation Xrotation
			JOINT lankle
			{
				OFFSET -0.014790 -0.426874 -0.037428
				CHANNELS 3 Zrotation Yrotation Xrotation
				JOINT ltoe
				{
					OFFSET 0.041054 -0.060286 0.122042
					CHANNELS 3 Zrotation Yrotation Xrotation
					End Site
					{
						OFFSET 0.000000 0.000000 0.000000
					}
				}
			}
		}
	}
	JOINT rhip
	{
		OFFSET -0.060310 -0.090513 -0.013543
		CHANNELS 3 Zrotation Yrotation Xrotation
		JOINT rknee
		{
			OFFSET -0.043257 -0.383688 -0.004843
			CHANNELS 3 Zrotation Yrotation Xrotation
			JOINT rankle
			{
				OFFSET 0.019056 -0.420046 -0.034562
				CHANNELS 3 Zrotation Yrotation Xrotation
				JOINT rtoe
				{
					OFFSET -0.034840 -0.062106 0.130323
					CHANNELS 3 Zrotation Yrotation Xrotation
					End Site
					{
						OFFSET 0.000000 0.000000 0.000000
					}
				}
			}
		}
	}
	JOINT lowerback
	{
		OFFSET 0.004439 0.124404 -0.038385
		CHANNELS 3 Zrotation Yrotation Xrotation
		JOINT upperback
		{
			OFFSET 0.004488 0.137956 0.026820
			CHANNELS 3 Zrotation Yrotation Xrotation
			JOINT chest
			{
				OFFSET -0.002265 0.056032 0.002855
				CHANNELS 3 Zrotation Yrotation Xrotation
				JOINT lowerneck
				{
					OFFSET -0.013390 0.211636 -0.033468
					CHANNELS 3 Zrotation Yrotation Xrotation
					JOINT upperneck
					{
						OFFSET 0.010113 0.088937 0.050410
						CHANNELS 3 Zrotation Yrotation Xrotation
						End Site
						{
							OFFSET 0.000000 0.000000 0.000000
						}
					}
				}
				JOINT lclavicle
				{
					OFFSET 0.071702 0.114000 -0.018898
					CHANNELS 3 Zrotation Yrotation Xrotation
					JOINT lshoulder
					{
						OFFSET 0.122921 0.045205 -0.019046
						CHANNELS 3 Zrotation Yrotation Xrotation
						JOINT lelbow
						{
							OFFSET 0.255332 -0.015649 -0.022946
							CHANNELS 3 Zrotation Yrotation Xrotation
							JOINT lwrist
							{
								OFFSET 0.265709 0.012698 -0.007375
								CHANNELS 3 Zrotation Yrotation Xrotation
								End Site
								{
									OFFSET 0.000000 0.000000 0.000000
								}
							}
						}
					}
				}
				JOINT rclavicle
				{
					OFFSET -0.082954 0.112472 -0.023707
					CHANNELS 3 Zrotation Yrotation Xrotation
					JOINT rshoulder
					{
						OFFSET -0.113228 0.046853 -0.008472
						CHANNELS 3 Zrotation Yrotation Xrotation
						JOINT relbow
						{
							OFFSET -0.260127 -0.014369 -0.031269
							CHANNELS 3 Zrotation Yrotation Xrotation
							JOINT rwrist
							{
								OFFSET -0.269108 0.006794 -0.006027
								CHANNELS 3 Zrotation Yrotation Xrotation
								End Site
								{
									OFFSET 0.000000 0.000000 0.000000
								}
							}
						}
					}
				}
			}
		}
	}
}
MOTION
Frames: 14
Frame Time: 0.033333
0.292227 0.170873 0.974243 80.006902 1.900377 86.703012 8.325972 4.822933 6.315927 1.226429 1.573910 3.640723 -0.264684 10.862711 -12.579342 0.000000 -0.000000 0.000000 -8.150680 -2.669457 6.099685 1.194775 -1.963051 -5.211177 4.290463 -3.337323 -4.681068 0.000000 -0.000000 0.000000 0.715470 0.369130 -0.754242 2.966700 -5.173387 6.423345 0.747747 -3.395128 -3.948444 -4.573534 -13.338525 15.037752 7.869673 -17.695459 -15.881403 -20.222426 -2.445881 4.422190 -62.823405 -7.516803 12.088981 13.794970 -14.056371 -6.631961 -15.452074 -16.658544 1.895923 17.592515 8.271522 0.043301 57.303364 4.040001 8.187101 -13.599418 9.216748 -10.074601 12.246651 13.965412 -7.332661 
0.292192 0.170782 0.973895 80.053993 1.904680 86.723429 8.328714 4.801233 6.261378 1.231526 1.535754 3.658868 -0.349364 10.875445 -12.567883 0.000000 -0.000000 0.000000 -8.145919 -2.707177 6.053579 1.184220 -1.992326 -5.160751 4.416645 -3.333885 -4.710986 0.000000 -0.000000 0.000000 0.773888 0.387234 -0.645794 2.875627 -5.111436 5.906712 0.770101 -3.423865 -3.514958 -4.613151 -13.503024 15.172723 7.979719 -17.779931 -16.111374 -20.290668 -2.497378 4.408332 -62.836221 -7.564293 12.057729 13.782556 -13.713051 -6.524411 -15.146895 -16.630958 1.603139 17.696997 8.316667 -0.116158 57.218503 4.149060 8.231805 -13.558265 9.313850 -9.996692 11.922015 14.004830 -7.492093 
0.291971 0.170763 0.973852 80.084733 1.901208 86.666316 8.339497 4.808522 6.273244 1.230686 1.525858 3.711741 -0.339569 10.843412 -12.581485 0.000000 -0.000000 0.000000 -8.148155 -2.704925 6.098196 1.187885 -2.010913 -5.137157 4.385210 -3.344016 -4.734693 0.000000 -0.000000 0.000000 0.780029 0.406798 -0.569400 2.887518 -5.120480 5.964683 0.780617 -3.433032 -3.534448 -4.628363 -13.658496 15.046845 8.022534 -17.957224 -16.183498 -20.370236 -2.582229 4.459618 -62.811043 -7.506073 12.017605 13.802077 -13.643480 -6.568078 -15.125032 -16.589627 1.585041 17.760691 8.419997 -0.117451 57.181049 4.175476 8.232620 -13.637608 9.762759 -10.094479 11.800328 14.082813 -7.573592 
0.291636 0.170737 0.973864 80.108151 1.893007 86.623902 8.344614 4.806280 6.256149 1.227663 1.532550 3.774913 -0.337350 10.815912 -12.579303 0.000000 -0.000000 0.000000 -8.148112 -2.696168 6.099183 1.185083 -2.031077 -5.081074 4.370622 -3.349990 -4.761830 0.000000 -0.000000 0.000000 0.768812 0.397794 -0.507607 2.893001 -5.158277 6.029466 0.791000 -3.432181 -3.559028 -4.641989 -13.776292 14.960872 8.098393 -18.153448 -16.204627 -20.361702 -2.645180 4.565734 -62.841352 -7.399432 11.984088 13.806915 -13.750828 -6.515066 -15.160770 -16.593206 1.554178 17.790482 8.511963 -0.077442 57.196534 4.200162 8.226498 -13.717213 10.409456 -10.092298 11.692382 14.184761 -7.696405 
0.291444 0.170708 0.973877 80.117731 1.887256 86.623603 8.346922 4.804502 6.232439 1.220831 1.534289 3.789250 -0.335431 10.810334 -12.573617 0.000000 -0.000000 0.000000 -8.147751 -2.687305 6.071426 1.182949 -2.039036 -5.044881 4.363913 -3.354898 -4.776588 0.000000 -0.000000 0.000000 0.749825 0.378752 -0.498416 2.894806 -5.179209 6.028458 0.792226 -3.434249 -3.563252 -4.631721 -13.877487 14.964976 8.130090 -18.256045 -16.144606 -20.351025 -2.609229 4.594336 -62.864941 -7.368769 11.972284 13.800025 -13.753567 -6.488438 -15.174135 -16.588181 1.534084 17.805367 8.511675 -0.087655 57.225559 4.247313 8.245648 -13.735613 10.624793 -10.049177 11.669415 14.205422 -7.706273 
0.291153 0.170665 0.973852 80.131305 1.881195 86.630069 8.356048 4.809940 6.212970 1.202963 1.514797 3.770575 -0.325859 10.797439 -12.557393 0.000000 -0.000000 0.000000 -8.151557 -2.681505 6.028759 1.187492 -2.040854 -4.996662 4.350545 -3.360196 -4.803652 0.000000 -0.000000 0.000000 0.715510 0.360002 -0.499454 2.901282 -5.194594 6.013695 0.793285 -3.449736 -3.564883 -4.615897 -14.034293 15.011412 8.144728 -18.373557 -16.016640 -20.366322 -2.555461 4.612867 -62.874276 -7.374094 11.968262 13.797173 -13.674964 -6.495595 -15.133752 -16.570575 1.502217 17.839093 8.482602 -0.128434 57.254287 4.319488 8.269221 -13.746626 10.704766 -10.042963 11.636235 14.215980 -7.713178 
0.290845 0.170640 0.973778 80.164545 1.871704 86.630237 8.363719 4.810095 6.197355 1.182630 1.481019 3.745279 -0.312300 10.780164 -12.541904 0.000000 -0.000000 0.000000 -8.164041 -2.679112 5.995558 1.198143 -2.042639 -4.946359 4.331374 -3.372906 -4.841324 0.000000 -0.000000 0.000000 0.676505 0.350394 -0.493204 2.907322 -5.201300 6.013753 0.799963 -3.480776 -3.579072 -4.609442 -14.185668 15.065071 8.146265 -18.461244 -15.912297 -20.411477 -2.541192 4.638397 -62.850605 -7.407248 11.981082 13.808228 -13.608048 -6.492707 -15.091563 -16.552841 1.491569 17.876700 8.468062 -0.133025 57.255082 4.359828 8.281930 -13.745762 10.675867 -10.080694 11.612319 14.215947 -7.764452 
0.290501 0.170588 0.973571 80.220511 1.875116 86.639360 8.373784 4.786137 6.148046 1.174081 1.455900 3.725047 -0.326241 10.764100 -12.491160 0.000000 -0.000000 0.000000 -8.163250 -2.688966 5.958141 1.209349 -2.053845 -4.917589 4.323245 -3.391122 -4.853681 0.000000 -0.000000 0.000000 0.662954 0.338126 -0.464850 2.899778 -5.205762 5.960584 0.813479 -3.510768 -3.527540 -4.605175 -14.297587 15.079865 8.186574 -18.527396 -15.917391 -20.409703 -2.565633 4.659213 -62.873018 -7.479406 11.981867 13.848483 -13.600549 -6.496128 -15.088251 -16.588417 1.436917 17.854415 8.461756 -0.129125 57.275171 4.354794 8.295056 -13.740106 10.635876 -10.027670 11.607665 14.221202 -7.806204 
0.290151 0.170500 0.973512 80.280496 1.876871 86.618674 8.386528 4.769589 6.126969 1.164404 1.426629 3.729502 -0.326738 10.739903 -12.478206 0.000000 -0.000000 0.000000 -8.162554 -2.705820 5.964320 1.219986 -2.071640 -4.900946 4.305747 -3.403892 -4.873152 0.000000 -0.000000 0.000000 0.640324 0.330445 -0.411761 2.892197 -5.208955 5.944198 0.823705 -3.520731 -3.492785 -4.577448 -14.363033 15.050892 8.251195 -18.578258 -15.965273 -20.414214 -2.586341 4.650958 -62.876936 -7.547682 11.964791 13.879976 -13.660025 -6.534003 -15.050885 -16.634903 1.394891 17.856871 8.447870 -0.124475 57.270150 4.287410 8.290628 -13.729109 10.536469 -9.964401 11.619542 14.219120 -7.789490 
0.289714 0.170425 0.973498 80.365846 1.870991 86.590064 8.393996 4.733647 6.091452 1.151846 1.388189 3.755519 -0.324359 10.718598 -12.463818 0.000000 -0.000000 0.000000 -8.166944 -2.727169 5.958067 1.228196 -2.106306 -4.840022 4.283225 -3.422902 -4.911900 0.000000 -0.000000 0.000000 0.617424 0.318879 -0.364245 2.869130 -5.214920 5.963171 0.812297 -3.524839 -3.481835 -4.547982 -14.407232 15.003801 8.308804 -18.625607 -15.954130 -20.426592 -2.598229 4.653979 -62.855894 -7.648724 11.929484 13.913996 -13.771542 -6.611088 -14.990355 -16.702945 1.333309 17.874600 8.438362 -0.078714 57.269805 4.201622 8.269926 -13.688810 10.255356 -9.914879 11.645617 14.189433 -7.767193 
0.289392 0.170374 0.973523 80.435888 1.865191 86.565717 8.400465 4.711939 6.085993 1.139852 1.348021 3.739532 -0.329147 10.705074 -12.434688 0.000000 -0.000000 0.000000 -8.167239 -2.737127 5.969283 1.227471 -2.134422 -4.815109 4.262525 -3.449914 -4.920542 0.000000 -0.000000 0.000000 0.605810 0.300207 -0.290872 2.845114 -5.208954 5.910512 0.795723 -3.544803 -3.472835 -4.540855 -14.452783 14.962986 8.301264 -18.658042 -15.843644 -20.433525 -2.545395 4.651283 -62.845921 -7.728221 11.922681 13.919905 -13.853182 -6.604404 -14.928690 -16.757125 1.289635 17.888900 8.373253 -0.082098 57.271695 4.154584 8.275157 -13.624827 9.884864 -9.825035 11.697181 14.140961 -7.702427 
0.289081 0.170326 0.973546 80.524821 1.858554 86.556239 8.408226 4.689576 6.066066 1.123551 1.306514 3.712470 -0.340988 10.682860 -12.405180 0.000000 -0.000000 0.000000 -8.166324 -2.758790 5.984972 1.225962 -2.159833 -4.822307 4.241976 -3.488280 -4.905938 0.000000 -0.000000 0.000000 0.594882 0.275133 -0.219501 2.825238 -5.211280 5.840209 0.781193 -3.586785 -3.469482 -4.540754 -14.499570 14.908759 8.266714 -18.670744 -15.731595 -20.450716 -2.477023 4.651395 -62.845676 -7.804948 11.923355 13.931398 -13.893132 -6.588644 -14.850887 -16.800625 1.248097 17.900616 8.282638 -0.116132 57.268914 4.117406 8.282614 -13.563707 9.463449 -9.725695 11.718538 14.060808 -7.610684 
0.288757 0.170310 0.973560 80.635697 1.847254 86.569069 8.410553 4.661245 6.009634 1.104350 1.257349 3.700930 -0.342880 10.658054 -12.384511 0.000000 -0.000000 0.000000 -8.166327 -2.782715 5.984085 1.220364 -2.193707 -4.835011 4.216603 -3.530877 -4.896687 0.000000 -0.000000 0.000000 0.567800 0.244886 -0.183465 2.812979 -5.237701 5.818936 0.772407 -3.625695 -3.476947 -4.527072 -14.549575 14.834802 8.260839 -18.688706 -15.710859 -20.469669 -2.428122 4.648218 -62.868874 -7.866814 11.915146 13.968884 -13.905752 -6.629538 -14.769773 -16.830061 1.224966 17.905962 8.218335 -0.136564 57.283075 4.059700 8.278474 -13.565182 9.140972 -9.654800 11.663049 13.973718 -7.491419 
0.288416 0.170286 0.973580 80.728373 1.833383 86.581960 8.409712 4.640690 5.952179 1.088064 1.217864 3.697673 -0.348785 10.631341 -12.361096 0.000000 -0.000000 0.000000 -8.169056 -2.805000 5.971749 1.214499 -2.224839 -4.834450 4.196890 -3.569762 -4.893318 0.000000 -0.000000 0.000000 0.543827 0.220218 -0.165592 2.800354 -5.268320 5.853630 0.762574 -3.651424 -3.495413 -4.512152 -14.602329 14.737558 8.292848 -18.740566 -15.762657 -20.485118 -2.445632 4.672391 -62.878876 -7.902635 11.903673 13.996046 -13.922969 -6.649473 -14.718906 -16.850302 1.226088 17.888211 8.210390 -0.116709 57.302249 3.969068 8.261678 -13.607598 8.983026 -9.606381 11.537906 13.921436 -7.418789 
